<svg width="262" height="262" xmlns="http://www.w3.org/2000/svg" xmlns:xlink="http://www.w3.org/1999/xlink" overflow="hidden"><defs><clipPath id="clip0"><rect x="903" y="101" width="262" height="262"/></clipPath></defs><g clip-path="url(#clip0)" transform="translate(-903 -101)"><path d="M1125.86 318.905C1148.84 263.37 1148.93 201.004 1126.13 145.398 1123.53 138.547 1115.87 135.097 1109.02 137.693 1108.71 137.811 1108.4 137.942 1108.1 138.084 1103.14 140.354 1099.97 145.316 1100 150.769 1100 152.509 1100.31 154.234 1100.93 155.862L1100.96 155.941 1100.99 156.023C1101.16 156.424 1101.29 156.841 1101.45 157.237L923.259 232.273 1101.24 307.21C1101.08 307.595 1100.95 307.988 1100.79 308.37 1100.03 310.102 1099.68 311.986 1099.77 313.875 1099.78 319.303 1102.95 324.23 1107.88 326.487L1108 326.538 1108.12 326.585C1115.13 329.255 1123 325.849 1125.86 318.905ZM994.49 208.202C1000.86 210.506 1004.15 217.538 1001.85 223.908 999.545 230.277 992.514 233.573 986.144 231.268 981.282 229.509 978.045 224.889 978.052 219.719 978.053 217.971 978.432 216.244 979.163 214.656ZM937.325 232.273 972.766 217.35C971.423 227.055 978.202 236.011 987.907 237.353 997.612 238.696 1006.57 231.917 1007.91 222.212 1008.8 215.777 1006.1 209.37 1000.88 205.511L1103.42 162.338C1120.1 207.45 1120.03 257.055 1103.2 302.112ZM1110.14 321.517C1107.15 320.152 1105.23 317.164 1105.23 313.875 1105.15 312.755 1105.33 311.631 1105.78 310.6 1126.42 260.441 1126.52 204.176 1106.05 153.946 1105.67 152.931 1105.47 151.854 1105.47 150.769 1105.46 147.442 1107.39 144.417 1110.42 143.029 1114.32 141.198 1118.97 142.879 1120.8 146.785 1120.9 146.985 1120.98 147.189 1121.06 147.396 1143.35 201.709 1143.25 262.636 1120.79 316.877 1119.06 321.031 1114.36 323.079 1110.14 321.517Z"/><path d="M1100.86 197.885C1100.86 188.088 1092.92 180.146 1083.12 180.146 1073.33 180.146 1065.39 188.088 1065.39 197.885 1065.39 207.683 1073.33 215.625 1083.12 215.625 1092.92 215.613 1100.85 207.678 1100.86 197.885ZM1070.84 197.885C1070.84 191.103 1076.34 185.604 1083.12 185.604 1089.91 185.604 1095.41 191.103 1095.41 197.885 1095.41 204.668 1089.91 210.167 1083.12 210.167 1076.35 210.159 1070.85 204.665 1070.84 197.885Z"/><path d="M1040.82 252.469C1040.82 262.266 1048.77 270.208 1058.56 270.208 1068.36 270.208 1076.3 262.266 1076.3 252.469 1076.3 242.671 1068.36 234.729 1058.56 234.729 1048.77 234.741 1040.83 242.676 1040.82 252.469ZM1070.84 252.469C1070.84 259.252 1065.35 264.75 1058.56 264.75 1051.78 264.75 1046.28 259.252 1046.28 252.469 1046.28 245.686 1051.78 240.188 1058.56 240.188 1065.34 240.195 1070.84 245.689 1070.84 252.469Z"/></g></svg>