<svg width="262" height="262" xmlns="http://www.w3.org/2000/svg" xmlns:xlink="http://www.w3.org/1999/xlink" overflow="hidden"><defs><clipPath id="clip0"><rect x="615" y="97" width="262" height="262"/></clipPath></defs><g clip-path="url(#clip0)" transform="translate(-615 -97)"><path d="M832.905 136.144C777.37 113.165 715.004 113.067 659.398 135.872 652.547 138.467 649.097 146.126 651.693 152.978 651.811 153.291 651.942 153.6 652.084 153.903 654.354 158.861 659.316 162.03 664.769 162.003 666.509 162.001 668.234 161.686 669.862 161.073L669.941 161.043 670.023 161.01C670.424 160.843 670.841 160.707 671.237 160.546L746.273 338.741 821.21 160.764C821.595 160.917 821.988 161.051 822.37 161.209 824.102 161.97 825.986 162.318 827.875 162.227 833.303 162.221 838.23 159.053 840.487 154.116L840.538 154.001 840.585 153.884C843.255 146.867 839.849 138.999 832.905 136.144ZM722.202 267.51C724.506 261.141 731.538 257.845 737.908 260.15 744.277 262.455 747.573 269.486 745.268 275.856 743.509 280.718 738.889 283.955 733.719 283.948 731.971 283.947 730.244 283.568 728.656 282.837ZM746.273 324.675 731.35 289.234C741.055 290.577 750.01 283.798 751.353 274.093 752.696 264.388 745.917 255.432 736.212 254.09 729.777 253.199 723.37 255.898 719.511 261.124L676.338 158.581C721.45 141.896 771.055 141.975 816.112 158.805ZM835.517 151.856C834.152 154.849 831.164 156.769 827.875 156.769 826.755 156.855 825.631 156.668 824.6 156.223 774.441 135.576 718.176 135.478 667.946 155.95 666.931 156.334 665.854 156.532 664.769 156.534 661.442 156.541 658.417 154.607 657.029 151.583 655.198 147.678 656.879 143.027 660.785 141.195 660.985 141.101 661.189 141.016 661.396 140.94 715.709 118.648 776.636 118.746 830.877 141.212 835.031 142.939 837.079 147.638 835.517 151.856Z"/><path d="M711.885 161.135C702.088 161.135 694.146 169.078 694.146 178.875 694.146 188.672 702.088 196.615 711.885 196.615 721.683 196.615 729.625 188.672 729.625 178.875 729.613 169.083 721.678 161.147 711.885 161.135ZM711.885 191.156C705.103 191.156 699.604 185.658 699.604 178.875 699.604 172.092 705.103 166.594 711.885 166.594 718.668 166.594 724.167 172.092 724.167 178.875 724.159 185.655 718.665 191.149 711.885 191.156Z"/><path d="M766.469 221.177C776.266 221.177 784.208 213.235 784.208 203.438 784.208 193.64 776.266 185.698 766.469 185.698 756.671 185.698 748.729 193.64 748.729 203.438 748.741 213.23 756.677 221.165 766.469 221.177ZM766.469 191.156C773.252 191.156 778.75 196.655 778.75 203.438 778.75 210.22 773.252 215.719 766.469 215.719 759.686 215.719 754.188 210.22 754.188 203.438 754.195 196.658 759.689 191.164 766.469 191.156Z"/></g></svg>