<svg width="367" height="368" xmlns="http://www.w3.org/2000/svg" xmlns:xlink="http://www.w3.org/1999/xlink" overflow="hidden"><defs><clipPath id="clip0"><rect x="622" y="128" width="367" height="368"/></clipPath><clipPath id="clip1"><path d="M785.625 128.72 988.853 292.281 825.292 495.509 622.064 331.948Z" fill-rule="evenodd" clip-rule="evenodd"/></clipPath><clipPath id="clip2"><path d="M785.625 128.72 988.853 292.281 825.292 495.509 622.064 331.948Z" fill-rule="evenodd" clip-rule="evenodd"/></clipPath><clipPath id="clip3"><path d="M785.625 128.72 988.853 292.281 825.292 495.509 622.064 331.948Z" fill-rule="evenodd" clip-rule="evenodd"/></clipPath></defs><g clip-path="url(#clip0)" transform="translate(-622 -128)"><g clip-path="url(#clip1)"><g clip-path="url(#clip2)"><g clip-path="url(#clip3)"><path d="M856.783 248.776C856.783 248.776 856.571 248.606 856.783 248.776 856.571 248.606 856.571 248.606 856.571 248.606 836.672 232.591 814.341 220.897 790.001 213.866 790.001 213.866 790.001 213.866 790.001 213.866L737.519 396.963 905.164 306.55C905.164 306.55 905.164 306.55 905.164 306.55 892.88 284.107 876.682 264.792 856.783 248.776ZM798.806 264.903C791.609 259.11 790.493 248.794 796.115 241.808 801.738 234.823 812.054 233.707 819.251 239.5 826.449 245.292 827.565 255.608 821.942 262.594 816.32 269.58 806.004 270.696 798.806 264.903ZM760.685 355.611 770.375 321.9C773.344 322.546 776.142 323.403 778.683 325.447 786.304 331.581 787.502 342.661 781.368 350.282 776.257 356.633 767.764 358.517 760.685 355.611ZM827.082 319.053C819.884 313.26 818.768 302.945 824.391 295.959 830.013 288.973 840.329 287.857 847.527 293.65 854.725 299.443 855.84 309.759 850.218 316.744 844.595 323.73 834.279 324.846 827.082 319.053Z"/><path d="M928.883 293.549C914.91 268.002 896.26 245.667 873.609 227.437 850.746 209.036 825.151 195.762 797.59 187.533 793.181 186.077 788.632 188.695 787.558 193.063 786.484 197.432 788.891 201.81 793.3 203.266 818.657 210.767 842.217 223.101 863.386 240.138 884.556 257.176 901.641 277.554 914.643 301.273 915.149 302.378 915.996 303.06 916.843 303.741 919.383 305.786 922.904 306.178 925.837 304.701 929.663 302.548 931.036 297.374 928.883 293.549Z"/></g></g></g></g></svg>